<svg width="12" height="12" viewBox="0 0 12 12" fill="none" xmlns="http://www.w3.org/2000/svg">
<path d="M7.11898 0.768857C6.30568 0.768115 5.51043 1.00834 4.83384 1.45916C4.15724 1.90997 3.6297 2.55111 3.31795 3.30146C3.0062 4.05182 2.92424 4.87768 3.08245 5.67458C3.24067 6.47147 3.63193 7.20358 4.20676 7.77831C4.78159 8.35303 5.51415 8.74454 6.31177 8.90331C7.10939 9.06208 7.93623 8.98097 8.68769 8.67024C9.43916 8.35952 10.0815 7.83314 10.5334 7.15769C10.9853 6.48225 11.2265 5.68809 11.2265 4.87568C11.2216 3.78865 10.7874 2.74749 10.0182 1.97848C9.2491 1.20948 8.2072 0.774775 7.11898 0.768857ZM7.11898 0C8.08436 0 9.02805 0.285953 9.83073 0.8217C10.6334 1.35745 11.259 2.11892 11.6285 3.00984C11.9979 3.90075 12.0945 4.88109 11.9062 5.82687C11.7179 6.77266 11.253 7.64143 10.5704 8.3233C9.88776 9.00518 9.01805 9.46954 8.07122 9.65767C7.1244 9.8458 6.14299 9.74924 5.2511 9.38021C4.35921 9.01119 3.5969 8.38626 3.06057 7.58446C2.52424 6.78266 2.23797 5.83999 2.23797 4.87568C2.23797 3.58257 2.75222 2.34242 3.66759 1.42805C4.58295 0.513686 5.82446 0 7.11898 0Z" fill="#2D3538"/>
<path d="M0.108863 11.3605L2.87602 8.57764L3.40918 9.10646L0.642019 11.8893C0.607258 11.9243 0.565942 11.9521 0.52043 11.9711C0.474919 11.9901 0.426103 12 0.376769 12.0002C0.327435 12.0004 0.27855 11.9908 0.232905 11.9721C0.18726 11.9534 0.145748 11.9259 0.110741 11.8912C0.0757329 11.8565 0.047915 11.8152 0.0288746 11.7698C0.00983429 11.7243 -5.65052e-05 11.6755 -0.000230789 11.6263C-0.000405073 11.577 0.00913954 11.5281 0.0278575 11.4826C0.0465758 11.437 0.0741019 11.3955 0.108863 11.3605Z" fill="#2D3538"/>
</svg>
